<svg xmlns="http://www.w3.org/2000/svg" width="760" height="656" viewBox="0 0 760 656" role="img" aria-label="Top 20 subnets by score">
<style>
    text { font-family: system-ui, -apple-system, 'Segoe UI', sans-serif; }
    .t-title { font-size: 15px; font-weight: 600; }
    .t-sub { font-size: 11.5px; }
    .t-lab { font-size: 11px; }
    .t-val { font-size: 11px; font-weight: 600; font-variant-numeric: tabular-nums; }
    .t-tick { font-size: 10.5px; font-variant-numeric: tabular-nums; }

    .surface { fill: #fcfcfb; }
    .ink { fill: #0b0b0b; }
    .ink2 { fill: #52514e; }
    .muted { fill: #898781; }
    .grid { stroke: #e1e0d9; }
    .axis { stroke: #c3c2b7; }
    .accent { fill: #2a78d6; }
    .critical { fill: #d03b3b; }
    .deemph { fill: #d8d7d0; }

    @media (prefers-color-scheme: dark) {
      .surface { fill: #1a1a19; }
      .ink { fill: #ffffff; }
      .ink2 { fill: #c3c2b7; }
      .muted { fill: #898781; }
      .grid { stroke: #2c2c2a; }
      .axis { stroke: #383835; }
      .accent { fill: #3987e5; }
      .deemph { fill: #3a3a37; }
    }
</style>
<rect class="surface" width="760" height="656" rx="8"/>
<text class="ink t-title" x="20" y="28">Top 20 subnets by score</text>
<text class="muted t-sub" x="20" y="46">Bar = score. Number at right = net margin per day for a non-owner miner, after machine cost.</text>
<text class="ink2 t-lab" x="158" y="88" text-anchor="end">1. sn76 Phylax</text>
<path class="accent" d="M168.0,74.0 H606.0 a4.0,4.0 0 0 1 4.0,4.0 V90.0 a4.0,4.0 0 0 1 -4.0,4.0 H168.0 Z"/>
<text class="ink t-val" x="618.0" y="88">77</text>
<text class="muted t-tick" x="740" y="88" text-anchor="end">$68/day</text>
<text class="ink2 t-lab" x="158" y="115" text-anchor="end">2. sn121 sundae_bar</text>
<path class="accent" d="M168.0,101.0 H593.3 a4.0,4.0 0 0 1 4.0,4.0 V117.0 a4.0,4.0 0 0 1 -4.0,4.0 H168.0 Z"/>
<text class="ink t-val" x="605.3" y="115">74</text>
<text class="muted t-tick" x="740" y="115" text-anchor="end">$1,109/day</text>
<text class="ink2 t-lab" x="158" y="142" text-anchor="end">3. sn67 Harnyx</text>
<path class="accent" d="M168.0,128.0 H581.2 a4.0,4.0 0 0 1 4.0,4.0 V144.0 a4.0,4.0 0 0 1 -4.0,4.0 H168.0 Z"/>
<text class="ink t-val" x="593.2" y="142">72</text>
<text class="muted t-tick" x="740" y="142" text-anchor="end">$23/day</text>
<text class="ink2 t-lab" x="158" y="169" text-anchor="end">4. sn23 Trishool</text>
<path class="accent" d="M168.0,155.0 H578.9 a4.0,4.0 0 0 1 4.0,4.0 V171.0 a4.0,4.0 0 0 1 -4.0,4.0 H168.0 Z"/>
<text class="ink t-val" x="590.9" y="169">72</text>
<text class="muted t-tick" x="740" y="169" text-anchor="end">$522/day</text>
<text class="ink2 t-lab" x="158" y="196" text-anchor="end">5. sn15 ORO</text>
<path class="accent" d="M168.0,182.0 H569.7 a4.0,4.0 0 0 1 4.0,4.0 V198.0 a4.0,4.0 0 0 1 -4.0,4.0 H168.0 Z"/>
<text class="ink t-val" x="581.7" y="196">70</text>
<text class="muted t-tick" x="740" y="196" text-anchor="end">$18/day</text>
<text class="ink2 t-lab" x="158" y="223" text-anchor="end">6. sn56 Gradients</text>
<path class="accent" d="M168.0,209.0 H565.1 a4.0,4.0 0 0 1 4.0,4.0 V225.0 a4.0,4.0 0 0 1 -4.0,4.0 H168.0 Z"/>
<text class="ink t-val" x="577.1" y="223">70</text>
<text class="muted t-tick" x="740" y="223" text-anchor="end">$653/day</text>
<text class="ink2 t-lab" x="158" y="250" text-anchor="end">7. sn91 cascade</text>
<path class="accent" d="M168.0,236.0 H562.2 a4.0,4.0 0 0 1 4.0,4.0 V252.0 a4.0,4.0 0 0 1 -4.0,4.0 H168.0 Z"/>
<text class="ink t-val" x="574.2" y="250">69</text>
<text class="muted t-tick" x="740" y="250" text-anchor="end">$570/day</text>
<text class="ink2 t-lab" x="158" y="277" text-anchor="end">8. sn38 ChronoLLM</text>
<path class="accent" d="M168.0,263.0 H553.0 a4.0,4.0 0 0 1 4.0,4.0 V279.0 a4.0,4.0 0 0 1 -4.0,4.0 H168.0 Z"/>
<text class="ink t-val" x="565.0" y="277">68</text>
<text class="muted t-tick" x="740" y="277" text-anchor="end">$147/day</text>
<text class="ink2 t-lab" x="158" y="304" text-anchor="end">9. sn26 Perturb</text>
<path class="accent" d="M168.0,290.0 H550.1 a4.0,4.0 0 0 1 4.0,4.0 V306.0 a4.0,4.0 0 0 1 -4.0,4.0 H168.0 Z"/>
<text class="ink t-val" x="562.1" y="304">67</text>
<text class="muted t-tick" x="740" y="304" text-anchor="end">$16/day</text>
<text class="ink2 t-lab" x="158" y="331" text-anchor="end">10. sn96 Verathos</text>
<path class="accent" d="M168.0,317.0 H545.5 a4.0,4.0 0 0 1 4.0,4.0 V333.0 a4.0,4.0 0 0 1 -4.0,4.0 H168.0 Z"/>
<text class="ink t-val" x="557.5" y="331">66</text>
<text class="muted t-tick" x="740" y="331" text-anchor="end">$13/day</text>
<text class="ink2 t-lab" x="158" y="358" text-anchor="end">11. sn107 Minos</text>
<path class="accent" d="M168.0,344.0 H535.7 a4.0,4.0 0 0 1 4.0,4.0 V360.0 a4.0,4.0 0 0 1 -4.0,4.0 H168.0 Z"/>
<text class="ink t-val" x="547.7" y="358">64</text>
<text class="muted t-tick" x="740" y="358" text-anchor="end">$125/day</text>
<text class="ink2 t-lab" x="158" y="385" text-anchor="end">12. sn85 Vidaio</text>
<path class="accent" d="M168.0,371.0 H533.4 a4.0,4.0 0 0 1 4.0,4.0 V387.0 a4.0,4.0 0 0 1 -4.0,4.0 H168.0 Z"/>
<text class="ink t-val" x="545.4" y="385">64</text>
<text class="muted t-tick" x="740" y="385" text-anchor="end">$127/day</text>
<text class="ink2 t-lab" x="158" y="412" text-anchor="end">13. sn28 gm</text>
<path class="accent" d="M168.0,398.0 H527.1 a4.0,4.0 0 0 1 4.0,4.0 V414.0 a4.0,4.0 0 0 1 -4.0,4.0 H168.0 Z"/>
<text class="ink t-val" x="539.1" y="412">63</text>
<text class="muted t-tick" x="740" y="412" text-anchor="end">$93/day</text>
<text class="ink2 t-lab" x="158" y="439" text-anchor="end">14. sn60 Bitsec.ai</text>
<path class="accent" d="M168.0,425.0 H521.3 a4.0,4.0 0 0 1 4.0,4.0 V441.0 a4.0,4.0 0 0 1 -4.0,4.0 H168.0 Z"/>
<text class="ink t-val" x="533.3" y="439">62</text>
<text class="muted t-tick" x="740" y="439" text-anchor="end">$913/day</text>
<text class="ink2 t-lab" x="158" y="466" text-anchor="end">15. sn81 Reliquary</text>
<path class="accent" d="M168.0,452.0 H519.0 a4.0,4.0 0 0 1 4.0,4.0 V468.0 a4.0,4.0 0 0 1 -4.0,4.0 H168.0 Z"/>
<text class="ink t-val" x="531.0" y="466">62</text>
<text class="muted t-tick" x="740" y="466" text-anchor="end">$59/day</text>
<text class="ink2 t-lab" x="158" y="493" text-anchor="end">16. sn55 NIOME</text>
<path class="accent" d="M168.0,479.0 H518.4 a4.0,4.0 0 0 1 4.0,4.0 V495.0 a4.0,4.0 0 0 1 -4.0,4.0 H168.0 Z"/>
<text class="ink t-val" x="530.4" y="493">62</text>
<text class="muted t-tick" x="740" y="493" text-anchor="end">$59/day</text>
<text class="ink2 t-lab" x="158" y="520" text-anchor="end">17. sn51 lium.io</text>
<path class="accent" d="M168.0,506.0 H516.7 a4.0,4.0 0 0 1 4.0,4.0 V522.0 a4.0,4.0 0 0 1 -4.0,4.0 H168.0 Z"/>
<text class="ink t-val" x="528.7" y="520">61</text>
<text class="muted t-tick" x="740" y="520" text-anchor="end">$62/day</text>
<text class="ink2 t-lab" x="158" y="547" text-anchor="end">18. sn102 ConnitoAI</text>
<path class="accent" d="M168.0,533.0 H509.8 a4.0,4.0 0 0 1 4.0,4.0 V549.0 a4.0,4.0 0 0 1 -4.0,4.0 H168.0 Z"/>
<text class="ink t-val" x="521.8" y="547">60</text>
<text class="muted t-tick" x="740" y="547" text-anchor="end">$1,323/day</text>
<text class="ink2 t-lab" x="158" y="574" text-anchor="end">19. sn53 engy</text>
<path class="accent" d="M168.0,560.0 H508.0 a4.0,4.0 0 0 1 4.0,4.0 V576.0 a4.0,4.0 0 0 1 -4.0,4.0 H168.0 Z"/>
<text class="ink t-val" x="520.0" y="574">60</text>
<text class="muted t-tick" x="740" y="574" text-anchor="end">$34/day</text>
<text class="ink2 t-lab" x="158" y="601" text-anchor="end">20. sn21 AdTAO</text>
<path class="accent" d="M168.0,587.0 H501.1 a4.0,4.0 0 0 1 4.0,4.0 V603.0 a4.0,4.0 0 0 1 -4.0,4.0 H168.0 Z"/>
<text class="ink t-val" x="513.1" y="601">58</text>
<text class="muted t-tick" x="740" y="601" text-anchor="end">$1/day</text>
<line class="axis" x1="168" y1="68" x2="168" y2="609" stroke-width="1"/>
<text class="muted t-tick" x="20" y="642">Income is the best NON-owner, NON-validator miner - not the headline top earner.</text>
</svg>
