<svg xmlns="http://www.w3.org/2000/svg" width="760" height="656" viewBox="0 0 760 656" role="img" aria-label="Top 20 subnets by score">
<style>
    text { font-family: system-ui, -apple-system, 'Segoe UI', sans-serif; }
    .t-title { font-size: 15px; font-weight: 600; }
    .t-sub { font-size: 11.5px; }
    .t-lab { font-size: 11px; }
    .t-val { font-size: 11px; font-weight: 600; font-variant-numeric: tabular-nums; }
    .t-tick { font-size: 10.5px; font-variant-numeric: tabular-nums; }

    .surface { fill: #fcfcfb; }
    .ink { fill: #0b0b0b; }
    .ink2 { fill: #52514e; }
    .muted { fill: #898781; }
    .grid { stroke: #e1e0d9; }
    .axis { stroke: #c3c2b7; }
    .accent { fill: #2a78d6; }
    .critical { fill: #d03b3b; }
    .deemph { fill: #d8d7d0; }

    @media (prefers-color-scheme: dark) {
      .surface { fill: #1a1a19; }
      .ink { fill: #ffffff; }
      .ink2 { fill: #c3c2b7; }
      .muted { fill: #898781; }
      .grid { stroke: #2c2c2a; }
      .axis { stroke: #383835; }
      .accent { fill: #3987e5; }
      .deemph { fill: #3a3a37; }
    }
</style>
<rect class="surface" width="760" height="656" rx="8"/>
<text class="ink t-title" x="20" y="28">Top 20 subnets by score</text>
<text class="muted t-sub" x="20" y="46">Bar = score. Number at right = net margin per day for a non-owner miner, after machine cost.</text>
<text class="ink2 t-lab" x="158" y="88" text-anchor="end">1. sn92 MicroTensor</text>
<path class="accent" d="M168.0,74.0 H606.0 a4.0,4.0 0 0 1 4.0,4.0 V90.0 a4.0,4.0 0 0 1 -4.0,4.0 H168.0 Z"/>
<text class="ink t-val" x="618.0" y="88">80</text>
<text class="muted t-tick" x="740" y="88" text-anchor="end">$152/day</text>
<text class="ink2 t-lab" x="158" y="115" text-anchor="end">2. sn21 AdTAO</text>
<path class="accent" d="M168.0,101.0 H582.7 a4.0,4.0 0 0 1 4.0,4.0 V117.0 a4.0,4.0 0 0 1 -4.0,4.0 H168.0 Z"/>
<text class="ink t-val" x="594.7" y="115">76</text>
<text class="muted t-tick" x="740" y="115" text-anchor="end">$52/day</text>
<text class="ink2 t-lab" x="158" y="142" text-anchor="end">3. sn91 cascade</text>
<path class="accent" d="M168.0,128.0 H558.9 a4.0,4.0 0 0 1 4.0,4.0 V144.0 a4.0,4.0 0 0 1 -4.0,4.0 H168.0 Z"/>
<text class="ink t-val" x="570.9" y="142">71</text>
<text class="muted t-tick" x="740" y="142" text-anchor="end">$1,103/day</text>
<text class="ink2 t-lab" x="158" y="169" text-anchor="end">4. sn96 Verathos</text>
<path class="accent" d="M168.0,155.0 H548.9 a4.0,4.0 0 0 1 4.0,4.0 V171.0 a4.0,4.0 0 0 1 -4.0,4.0 H168.0 Z"/>
<text class="ink t-val" x="560.9" y="169">70</text>
<text class="muted t-tick" x="740" y="169" text-anchor="end">$30/day</text>
<text class="ink2 t-lab" x="158" y="196" text-anchor="end">5. sn14 Cacheon</text>
<path class="accent" d="M168.0,182.0 H548.4 a4.0,4.0 0 0 1 4.0,4.0 V198.0 a4.0,4.0 0 0 1 -4.0,4.0 H168.0 Z"/>
<text class="ink t-val" x="560.4" y="196">69</text>
<text class="muted t-tick" x="740" y="196" text-anchor="end">$612/day</text>
<text class="ink2 t-lab" x="158" y="223" text-anchor="end">6. sn107 Minos</text>
<path class="accent" d="M168.0,209.0 H546.2 a4.0,4.0 0 0 1 4.0,4.0 V225.0 a4.0,4.0 0 0 1 -4.0,4.0 H168.0 Z"/>
<text class="ink t-val" x="558.2" y="223">69</text>
<text class="muted t-tick" x="740" y="223" text-anchor="end">$355/day</text>
<text class="ink2 t-lab" x="158" y="250" text-anchor="end">7. sn67 Harnyx</text>
<path class="accent" d="M168.0,236.0 H544.5 a4.0,4.0 0 0 1 4.0,4.0 V252.0 a4.0,4.0 0 0 1 -4.0,4.0 H168.0 Z"/>
<text class="ink t-val" x="556.5" y="250">69</text>
<text class="muted t-tick" x="740" y="250" text-anchor="end">$9/day</text>
<text class="ink2 t-lab" x="158" y="277" text-anchor="end">8. sn11 TrajectoryRL</text>
<path class="accent" d="M168.0,263.0 H542.3 a4.0,4.0 0 0 1 4.0,4.0 V279.0 a4.0,4.0 0 0 1 -4.0,4.0 H168.0 Z"/>
<text class="ink t-val" x="554.3" y="277">68</text>
<text class="muted t-tick" x="740" y="277" text-anchor="end">$6,058/day</text>
<text class="ink2 t-lab" x="158" y="304" text-anchor="end">9. sn80 OpenRoboto</text>
<path class="accent" d="M168.0,290.0 H542.3 a4.0,4.0 0 0 1 4.0,4.0 V306.0 a4.0,4.0 0 0 1 -4.0,4.0 H168.0 Z"/>
<text class="ink t-val" x="554.3" y="304">68</text>
<text class="muted t-tick" x="740" y="304" text-anchor="end">$443/day</text>
<text class="ink2 t-lab" x="158" y="331" text-anchor="end">10. sn56 Gradients</text>
<path class="accent" d="M168.0,317.0 H540.1 a4.0,4.0 0 0 1 4.0,4.0 V333.0 a4.0,4.0 0 0 1 -4.0,4.0 H168.0 Z"/>
<text class="ink t-val" x="552.1" y="331">68</text>
<text class="muted t-tick" x="740" y="331" text-anchor="end">$392/day</text>
<text class="ink2 t-lab" x="158" y="358" text-anchor="end">11. sn124 Swarm</text>
<path class="accent" d="M168.0,344.0 H532.3 a4.0,4.0 0 0 1 4.0,4.0 V360.0 a4.0,4.0 0 0 1 -4.0,4.0 H168.0 Z"/>
<text class="ink t-val" x="544.3" y="358">66</text>
<text class="muted t-tick" x="740" y="358" text-anchor="end">$269/day</text>
<text class="ink2 t-lab" x="158" y="385" text-anchor="end">12. sn38 ChronoLLM</text>
<path class="accent" d="M168.0,371.0 H529.6 a4.0,4.0 0 0 1 4.0,4.0 V387.0 a4.0,4.0 0 0 1 -4.0,4.0 H168.0 Z"/>
<text class="ink t-val" x="541.6" y="385">66</text>
<text class="muted t-tick" x="740" y="385" text-anchor="end">$100/day</text>
<text class="ink2 t-lab" x="158" y="412" text-anchor="end">13. sn61 RedTeam</text>
<path class="accent" d="M168.0,398.0 H528.5 a4.0,4.0 0 0 1 4.0,4.0 V414.0 a4.0,4.0 0 0 1 -4.0,4.0 H168.0 Z"/>
<text class="ink t-val" x="540.5" y="412">66</text>
<text class="muted t-tick" x="740" y="412" text-anchor="end">$212/day</text>
<text class="ink2 t-lab" x="158" y="439" text-anchor="end">14. sn111 Claims</text>
<path class="accent" d="M168.0,425.0 H527.9 a4.0,4.0 0 0 1 4.0,4.0 V441.0 a4.0,4.0 0 0 1 -4.0,4.0 H168.0 Z"/>
<text class="ink t-val" x="539.9" y="439">66</text>
<text class="muted t-tick" x="740" y="439" text-anchor="end">$221/day</text>
<text class="ink2 t-lab" x="158" y="466" text-anchor="end">15. sn28 SayGM</text>
<path class="accent" d="M168.0,452.0 H510.7 a4.0,4.0 0 0 1 4.0,4.0 V468.0 a4.0,4.0 0 0 1 -4.0,4.0 H168.0 Z"/>
<text class="ink t-val" x="522.7" y="466">63</text>
<text class="muted t-tick" x="740" y="466" text-anchor="end">$82/day</text>
<text class="ink2 t-lab" x="158" y="493" text-anchor="end">16. sn55 NIOME</text>
<path class="accent" d="M168.0,479.0 H508.0 a4.0,4.0 0 0 1 4.0,4.0 V495.0 a4.0,4.0 0 0 1 -4.0,4.0 H168.0 Z"/>
<text class="ink t-val" x="520.0" y="493">62</text>
<text class="muted t-tick" x="740" y="493" text-anchor="end">$69/day</text>
<text class="ink2 t-lab" x="158" y="520" text-anchor="end">17. sn23 Trishool</text>
<path class="accent" d="M168.0,506.0 H498.0 a4.0,4.0 0 0 1 4.0,4.0 V522.0 a4.0,4.0 0 0 1 -4.0,4.0 H168.0 Z"/>
<text class="ink t-val" x="510.0" y="520">60</text>
<text class="muted t-tick" x="740" y="520" text-anchor="end">$552/day</text>
<text class="ink2 t-lab" x="158" y="547" text-anchor="end">18. sn62 Ridges</text>
<path class="accent" d="M168.0,533.0 H495.8 a4.0,4.0 0 0 1 4.0,4.0 V549.0 a4.0,4.0 0 0 1 -4.0,4.0 H168.0 Z"/>
<text class="ink t-val" x="507.8" y="547">60</text>
<text class="muted t-tick" x="740" y="547" text-anchor="end">$36/day</text>
<text class="ink2 t-lab" x="158" y="574" text-anchor="end">19. sn74 Gittensor</text>
<path class="accent" d="M168.0,560.0 H482.5 a4.0,4.0 0 0 1 4.0,4.0 V576.0 a4.0,4.0 0 0 1 -4.0,4.0 H168.0 Z"/>
<text class="ink t-val" x="494.5" y="574">58</text>
<text class="muted t-tick" x="740" y="574" text-anchor="end">$20/day</text>
<text class="ink2 t-lab" x="158" y="601" text-anchor="end">20. sn81 Reliquary</text>
<path class="accent" d="M168.0,587.0 H478.6 a4.0,4.0 0 0 1 4.0,4.0 V603.0 a4.0,4.0 0 0 1 -4.0,4.0 H168.0 Z"/>
<text class="ink t-val" x="490.6" y="601">57</text>
<text class="muted t-tick" x="740" y="601" text-anchor="end">$14/day</text>
<line class="axis" x1="168" y1="68" x2="168" y2="609" stroke-width="1"/>
<text class="muted t-tick" x="20" y="642">Income is the best NON-owner, NON-validator miner - not the headline top earner.</text>
</svg>
